<svg width="24" height="24" viewBox="0 0 24 24" fill="none" xmlns="http://www.w3.org/2000/svg">
<circle cx="12" cy="12" r="12" fill="#CCCCCC"/>
<g clip-path="url(#clip0_542_8265)">
<path d="M8 14.3998H9.6C9.6 15.2638 10.696 15.9998 12 15.9998C13.304 15.9998 14.4 15.2638 14.4 14.3998C14.4 13.5198 13.568 13.1998 11.808 12.7758C10.112 12.3518 8 11.8238 8 9.5998C8 8.1678 9.176 6.9518 10.8 6.5438V4.7998H13.2V6.5438C14.824 6.9518 16 8.1678 16 9.5998H14.4C14.4 8.7358 13.304 7.9998 12 7.9998C10.696 7.9998 9.6 8.7358 9.6 9.5998C9.6 10.4798 10.432 10.7998 12.192 11.2238C13.888 11.6478 16 12.1758 16 14.3998C16 15.8318 14.824 17.0478 13.2 17.4558V19.1998H10.8V17.4558C9.176 17.0478 8 15.8318 8 14.3998Z" fill="white"/>
</g>
<defs>
<clipPath id="clip0_542_8265">
<rect width="19.2" height="19.2" fill="white" transform="translate(2.3999 2.3999)"/>
</clipPath>
</defs>
</svg>
