<svg width="24" height="24" viewBox="0 0 24 24" fill="none" xmlns="http://www.w3.org/2000/svg">
<circle cx="12" cy="12" r="12" fill="black"/>
<path d="M11.9998 12.7997C10.9389 12.7997 9.92152 12.3783 9.17138 11.6281C8.42123 10.878 7.9998 9.86057 7.9998 8.79971H9.5998C9.5998 9.43623 9.85266 10.0467 10.3027 10.4968C10.7528 10.9469 11.3633 11.1997 11.9998 11.1997C12.6363 11.1997 13.2468 10.9469 13.6969 10.4968C14.1469 10.0467 14.3998 9.43623 14.3998 8.79971H15.9998C15.9998 9.86057 15.5784 10.878 14.8282 11.6281C14.0781 12.3783 13.0607 12.7997 11.9998 12.7997ZM11.9998 4.79971C12.6363 4.79971 13.2468 5.05256 13.6969 5.50265C14.1469 5.95274 14.3998 6.56319 14.3998 7.19971H9.5998C9.5998 6.56319 9.85266 5.95274 10.3027 5.50265C10.7528 5.05256 11.3633 4.79971 11.9998 4.79971ZM17.5998 7.19971H15.9998C15.9998 6.67442 15.8963 6.15428 15.6953 5.66897C15.4943 5.18367 15.1997 4.74271 14.8282 4.37128C14.4568 3.99985 14.0158 3.70521 13.5305 3.50419C13.0452 3.30317 12.5251 3.19971 11.9998 3.19971C10.9389 3.19971 9.92152 3.62113 9.17138 4.37128C8.42123 5.12143 7.9998 6.13884 7.9998 7.19971H6.3998C5.5118 7.19971 4.7998 7.91171 4.7998 8.79971V18.3997C4.7998 18.8241 4.96838 19.231 5.26843 19.5311C5.56849 19.8311 5.97546 19.9997 6.3998 19.9997H17.5998C18.0242 19.9997 18.4311 19.8311 18.7312 19.5311C19.0312 19.231 19.1998 18.8241 19.1998 18.3997V8.79971C19.1998 7.91171 18.4798 7.19971 17.5998 7.19971Z" fill="white"/>
</svg>
